<svg width="43" height="39" viewBox="0 0 43 39" fill="none" xmlns="http://www.w3.org/2000/svg">
<path d="M19.6859 34.2768L19.6823 34.2735C14.2136 29.2765 9.87515 25.3003 6.87465 21.6013C3.9022 17.9369 2.5 14.8472 2.5 11.665C2.5 6.47707 6.48928 2.5 11.5763 2.5C14.4758 2.5 17.3054 3.87313 19.1446 6.03253L21.0478 8.26702L22.9511 6.03253C24.7903 3.87313 27.6199 2.5 30.5194 2.5C35.6064 2.5 39.5957 6.47707 39.5957 11.665C39.5957 14.8472 38.1935 17.9369 35.221 21.6013C32.2205 25.3003 27.8821 29.2765 22.4134 34.2735L22.4098 34.2768L21.0478 35.5261L19.6859 34.2768Z" fill="#F24E1E" stroke="black" stroke-width="5"/>
</svg>
